<svg xmlns="http://www.w3.org/2000/svg" fill="none" viewBox="0 0 24 24" id="Google-Tv-Remote--Streamline-Outlined-Material" height="24" width="24">
  <desc>
    Google Tv Remote Streamline Icon: https://streamlinehq.com
  </desc>
  <path fill="#000000" d="M12 7c-0.41665 0 -0.77085 -0.14585 -1.0625 -0.4375C10.64585 6.27085 10.5 5.91665 10.5 5.5c0 -0.41665 0.14585 -0.770835 0.4375 -1.0625C11.22915 4.145835 11.58335 4 12 4c0.41665 0 0.77085 0.145835 1.0625 0.4375 0.29165 0.291665 0.4375 0.64585 0.4375 1.0625 0 0.41665 -0.14585 0.77085 -0.4375 1.0625 -0.29165 0.29165 -0.64585 0.4375 -1.0625 0.4375Zm0 16c-1.38335 0 -2.5625 -0.4875 -3.5375 -1.4625C7.4875 20.5625 7 19.38335 7 18V6c0 -1.383335 0.4875 -2.5625 1.4625 -3.5375C9.4375 1.4875 10.61665 1 12 1s2.5625 0.4875 3.5375 1.4625C16.5125 3.4375 17 4.616665 17 6v12c0 1.38335 -0.4875 2.5625 -1.4625 3.5375C14.5625 22.5125 13.38335 23 12 23Zm0 -14.5c0.84 0 1.55 -0.29 2.13 -0.87C14.71 7.05 15 6.34 15 5.5c0 -0.84 -0.29 -1.55 -0.87 -2.13C13.55 2.79 12.84 2.5 12 2.5c-0.84 0 -1.55 0.29 -2.13 0.87C9.29 3.95 9 4.66 9 5.5c0 0.84 0.29 1.55 0.87 2.13C10.45 8.21 11.16 8.5 12 8.5Zm-0.006 13c0.97065 0 1.79765 -0.34025 2.481 -1.02075C15.15835 19.7986 15.5 18.97215 15.5 18V8.325c-0.43335 0.53335 -0.95415 0.94585 -1.5625 1.2375 -0.60835 0.29165 -1.25835 0.4375 -1.95 0.4375 -0.69165 0 -1.34165 -0.14585 -1.95 -0.4375 -0.60835 -0.29165 -1.12085 -0.70415 -1.5375 -1.2375V18c0 0.97215 0.33965 1.7986 1.019 2.47925C10.1985 21.15975 11.0235 21.5 11.994 21.5Zm-1.4895 -5.75c0.21365 0 0.39135 -0.07235 0.533 -0.217 0.14165 -0.1445 0.2125 -0.32365 0.2125 -0.5375 0 -0.21365 -0.07235 -0.39135 -0.217 -0.533 -0.1445 -0.14165 -0.32365 -0.2125 -0.5375 -0.2125 -0.21365 0 -0.39135 0.07235 -0.533 0.217 -0.14165 0.1445 -0.2125 0.32365 -0.2125 0.5375 0 0.21365 0.07235 0.39135 0.217 0.533 0.1445 0.14165 0.32365 0.2125 0.5375 0.2125Zm0 -3c0.21365 0 0.39135 -0.07235 0.533 -0.217 0.14165 -0.1445 0.2125 -0.32365 0.2125 -0.5375 0 -0.21365 -0.07235 -0.39135 -0.217 -0.533 -0.1445 -0.14165 -0.32365 -0.2125 -0.5375 -0.2125 -0.21365 0 -0.39135 0.07235 -0.533 0.217 -0.14165 0.1445 -0.2125 0.32365 -0.2125 0.5375 0 0.21365 0.07235 0.39135 0.217 0.533 0.1445 0.14165 0.32365 0.2125 0.5375 0.2125Zm3 0c0.21365 0 0.39135 -0.07235 0.533 -0.217 0.14165 -0.1445 0.2125 -0.32365 0.2125 -0.5375 0 -0.21365 -0.07235 -0.39135 -0.217 -0.533 -0.1445 -0.14165 -0.32365 -0.2125 -0.5375 -0.2125 -0.21365 0 -0.39135 0.07235 -0.533 0.217 -0.14165 0.1445 -0.2125 0.32365 -0.2125 0.5375 0 0.21365 0.07235 0.39135 0.217 0.533 0.1445 0.14165 0.32365 0.2125 0.5375 0.2125Zm0 3c0.21365 0 0.39135 -0.07235 0.533 -0.217 0.14165 -0.1445 0.2125 -0.32365 0.2125 -0.5375 0 -0.21365 -0.07235 -0.39135 -0.217 -0.533 -0.1445 -0.14165 -0.32365 -0.2125 -0.5375 -0.2125 -0.21365 0 -0.39135 0.07235 -0.533 0.217 -0.14165 0.1445 -0.2125 0.32365 -0.2125 0.5375 0 0.21365 0.07235 0.39135 0.217 0.533 0.1445 0.14165 0.32365 0.2125 0.5375 0.2125Zm-3 3c0.21365 0 0.39135 -0.07235 0.533 -0.217 0.14165 -0.1445 0.2125 -0.32365 0.2125 -0.5375 0 -0.21365 -0.07235 -0.39135 -0.217 -0.533 -0.1445 -0.14165 -0.32365 -0.2125 -0.5375 -0.2125 -0.21365 0 -0.39135 0.07235 -0.533 0.217 -0.14165 0.1445 -0.2125 0.32365 -0.2125 0.5375 0 0.21365 0.07235 0.39135 0.217 0.533 0.1445 0.14165 0.32365 0.2125 0.5375 0.2125Zm3 0c0.21365 0 0.39135 -0.07235 0.533 -0.217 0.14165 -0.1445 0.2125 -0.32365 0.2125 -0.5375 0 -0.21365 -0.07235 -0.39135 -0.217 -0.533 -0.1445 -0.14165 -0.32365 -0.2125 -0.5375 -0.2125 -0.21365 0 -0.39135 0.07235 -0.533 0.217 -0.14165 0.1445 -0.2125 0.32365 -0.2125 0.5375 0 0.21365 0.07235 0.39135 0.217 0.533 0.1445 0.14165 0.32365 0.2125 0.5375 0.2125Z" stroke-width="0.5"></path>
</svg>